<?xml version="1.0" encoding="UTF-8" standalone="no"?>
<!-- Created with Inkscape (http://www.inkscape.org/) -->

<svg
   width="177.35542mm"
   height="152.66563mm"
   viewBox="0 0 177.35542 152.66563"
   version="1.1"
   id="svg1"
   xml:space="preserve"
   xmlns="http://www.w3.org/2000/svg"
   xmlns:svg="http://www.w3.org/2000/svg"><defs
     id="defs1"><linearGradient
       id="swatch6"><stop
         style="stop-color:#000000;stop-opacity:1;"
         offset="0"
         id="stop6" /></linearGradient><style
       id="style1-6">.cls-1{fill:none;stroke:#020202;stroke-miterlimit:10;stroke-width:1.91px;}</style></defs><g
     id="layer1"
     transform="translate(-20.503397,-14.974189)"><g
       id="g1"
       transform="matrix(5.0613357,0,0,5.0613357,85.409457,10.863721)"
       style="fill:none;fill-opacity:1;fill-rule:evenodd;stroke-width:1.33466;stroke-dasharray:none"><path
         class="cls-1"
         d="M 16.77,7.23 V 20.59 A 1.9,1.9 0 0 1 14.86,22.5 H 5.32 A 1.9,1.9 0 0 1 3.41,20.59 V 7.23 h 2.86 a 1,1 0 0 1 1,0.95 v 1.43 a 1.43,1.43 0 1 0 2.86,0 V 8.18 a 1,1 0 0 1 1,-0.95 z"
         id="path1-7"
         style="fill:none;fill-opacity:1;fill-rule:evenodd;stroke:#3fb950;stroke-width:1.33466;stroke-dasharray:none;stroke-opacity:1" /><path
         class="cls-1"
         d="m 16.77,9.14 h 2.86 A 1.91,1.91 0 0 1 21.55,11 v 3.82 a 1.91,1.91 0 0 1 -1.91,1.91 h -2.87 z"
         id="path2-5"
         style="fill:none;fill-opacity:1;fill-rule:evenodd;stroke:#3fb950;stroke-width:1.33466;stroke-dasharray:none;stroke-opacity:1" /><line
         class="cls-1"
         x1="8.1800003"
         y1="11.05"
         x2="8.1800003"
         y2="19.639999"
         id="line2"
         style="fill:none;fill-opacity:1;fill-rule:evenodd;stroke:#3fb950;stroke-width:1.33466;stroke-dasharray:none;stroke-opacity:1" /><line
         class="cls-1"
         x1="12"
         y1="11.05"
         x2="12"
         y2="19.639999"
         id="line3"
         style="fill:#ffffff;fill-opacity:1;fill-rule:evenodd;stroke:#3fb950;stroke-width:1.33466;stroke-dasharray:none;stroke-opacity:1" /><path
         class="cls-1"
         d="m 11.05,7.23 h 5.25 a 1.44,1.44 0 0 0 0,-2.87 H 14.86 A 1.92,1.92 0 0 0 13,2.45 1.78,1.78 0 0 0 12.36,2.58 2.83,2.83 0 0 0 7.59,3 1.84,1.84 0 0 0 6.27,2.46 1.92,1.92 0 0 0 4.36,4.36 H 3.89 a 1.44,1.44 0 1 0 0,2.87 h 2.38"
         id="path3-3"
         style="fill:none;fill-opacity:1;fill-rule:evenodd;stroke:#3fb950;stroke-width:1.33466;stroke-dasharray:none;stroke-opacity:1" /></g><g
       id="g15"
       transform="matrix(0.15666839,0,0,0.15666839,15.517427,87.425607)"
       style="fill:#3fb950;fill-opacity:1;stroke-width:4904.19;stroke-dasharray:none">
	<path
   class="st0"
   d="m 412.578,198.174 c -11.158,6.083 -20.201,20.053 -20.201,31.21 0,11.151 9.043,15.266 20.201,9.191 11.15,-6.082 20.2,-20.06 20.2,-31.211 0,-11.157 -9.05,-15.273 -20.2,-9.19 z"
   id="path1"
   style="fill:#3fb950;fill-opacity:1;stroke-width:4904.19;stroke-dasharray:none" />
	<path
   class="st0"
   d="m 412.578,263.945 c -11.158,6.083 -20.201,20.053 -20.201,31.21 0,11.158 9.043,15.273 20.201,9.191 11.15,-6.082 20.2,-20.059 20.2,-31.21 0,-11.151 -9.05,-15.273 -20.2,-9.191 z"
   id="path2"
   style="fill:#3fb950;fill-opacity:1;stroke-width:4904.19;stroke-dasharray:none" />
	<path
   class="st0"
   d="m 314.4,296.257 c 11.151,-6.083 20.201,-20.053 20.201,-31.211 0,-11.158 -9.05,-15.273 -20.201,-9.191 -11.164,6.083 -20.201,20.053 -20.201,31.211 0,11.158 9.037,15.273 20.201,9.191 z"
   id="path3"
   style="fill:#3fb950;fill-opacity:1;stroke-width:4904.19;stroke-dasharray:none" />
	<path
   class="st0"
   d="m 412.578,329.723 c -11.158,6.076 -20.201,20.053 -20.201,31.204 0,11.158 9.043,15.273 20.201,9.19 11.15,-6.082 20.2,-20.053 20.2,-31.21 0,-11.151 -9.05,-15.266 -20.2,-9.184 z"
   id="path4"
   style="fill:#3fb950;fill-opacity:1;stroke-width:4904.19;stroke-dasharray:none" />
	<path
   class="st0"
   d="m 314.4,387.399 c -11.164,6.089 -20.201,20.06 -20.201,31.21 0,11.158 9.036,15.273 20.201,9.19 11.151,-6.075 20.201,-20.052 20.201,-31.21 0,-11.151 -9.05,-15.266 -20.201,-9.19 z"
   id="path5"
   style="fill:#3fb950;fill-opacity:1;stroke-width:4904.19;stroke-dasharray:none" />
	<path
   class="st0"
   d="m 315.602,321.627 c -11.157,6.083 -20.194,20.053 -20.194,31.211 0,11.158 9.036,15.273 20.194,9.191 11.158,-6.083 20.208,-20.053 20.208,-31.211 0,-11.158 -9.05,-15.274 -20.208,-9.191 z"
   id="path6"
   style="fill:#3fb950;fill-opacity:1;stroke-width:4904.19;stroke-dasharray:none" />
	<path
   class="st0"
   d="M 449.528,105.602 288.466,8.989 C 278.476,2.994 267.232,0 256,0 244.775,0 233.524,2.994 223.54,8.989 L 62.472,105.602 C 43.46,117.008 31.825,137.551 31.825,159.719 v 192.562 c 0,22.168 11.634,42.711 30.647,54.117 l 161.069,96.613 c 9.983,5.988 21.234,8.989 32.459,8.989 11.232,0 22.476,-3.001 32.466,-8.989 l 161.062,-96.613 c 19.006,-11.406 30.647,-31.95 30.647,-54.117 V 159.719 c 0,-22.168 -11.641,-42.711 -30.647,-54.117 z M 250.589,492.733 c -6.016,-0.745 -11.923,-2.719 -17.314,-5.949 L 72.206,390.171 C 58.893,382.182 50.75,367.802 50.75,352.281 V 159.719 c 0,-6.022 1.242,-11.862 3.512,-17.234 L 250.59,260.245 V 492.733 Z M 59.658,133.114 c 3.371,-4.464 7.6,-8.318 12.548,-11.286 L 233.275,25.215 c 6.996,-4.196 14.857,-6.29 22.725,-6.29 7.868,0 15.723,2.095 22.725,6.29 l 161.068,96.613 c 4.948,2.968 9.177,6.821 12.547,11.286 L 256,250.881 Z m 401.586,219.167 c 0,15.521 -8.137,29.901 -21.45,37.89 l -161.068,96.613 c -5.391,3.23 -11.292,5.204 -17.314,5.949 V 260.246 L 457.74,142.486 c 2.269,5.371 3.505,11.212 3.505,17.234 v 192.561 z"
   id="path7"
   style="display:inline;fill:#3fb950;fill-opacity:1;stroke-width:4904.19;stroke-dasharray:none" />
	<path
   class="st0"
   d="m 275.522,44.678 c -9.828,-7.27 -26.028,-7.459 -36.172,-0.403 -10.144,7.049 -10.399,18.677 -0.57,25.948 9.835,7.277 26.022,7.465 36.166,0.41 10.137,-7.057 10.405,-18.672 0.576,-25.955 z"
   id="path8"
   style="fill:#3fb950;fill-opacity:1;stroke-width:4904.19;stroke-dasharray:none" />
	<path
   class="st0"
   d="m 382.34,115.78 c -9.828,-7.284 -26.021,-7.466 -36.165,-0.417 -10.137,7.049 -10.399,18.677 -0.57,25.948 9.835,7.277 26.021,7.459 36.165,0.416 10.144,-7.063 10.405,-18.67 0.57,-25.947 z"
   id="path9"
   style="fill:#3fb950;fill-opacity:1;stroke-width:4904.19;stroke-dasharray:none" />
	<path
   class="st0"
   d="m 165.617,113.564 c -9.829,-7.278 -26.021,-7.459 -36.165,-0.41 -10.151,7.056 -10.406,18.67 -0.577,25.948 9.828,7.284 26.022,7.459 36.172,0.41 10.136,-7.056 10.398,-18.67 0.57,-25.948 z"
   id="path10"
   style="fill:#3fb950;fill-opacity:1;stroke-width:4904.19;stroke-dasharray:none" />
	<path
   class="st0"
   d="m 272.441,184.653 c -9.836,-7.278 -26.028,-7.459 -36.165,-0.41 -10.144,7.056 -10.406,18.67 -0.572,25.947 9.836,7.284 26.015,7.466 36.166,0.41 10.138,-7.049 10.4,-18.663 0.571,-25.947 z"
   id="path11"
   style="fill:#3fb950;fill-opacity:1;stroke-width:4904.19;stroke-dasharray:none" />
	<path
   class="st0"
   d="m 273.354,115.102 c -9.5,-7.029 -25.135,-7.21 -34.944,-0.396 -9.802,6.814 -10.043,18.039 -0.551,25.068 9.5,7.028 25.142,7.21 34.95,0.396 9.796,-6.814 10.045,-18.039 0.545,-25.068 z"
   id="path12"
   style="fill:#3fb950;fill-opacity:1;stroke-width:4904.19;stroke-dasharray:none" />
	<path
   class="st0"
   d="m 89.278,248.303 c 11.158,6.083 20.208,1.961 20.208,-9.19 0,-11.158 -9.05,-25.129 -20.208,-31.211 -11.15,-6.082 -20.194,-1.967 -20.194,9.191 0,11.15 9.044,25.127 20.194,31.21 z"
   id="path13"
   style="fill:#3fb950;fill-opacity:1;stroke-width:4904.19;stroke-dasharray:none" />
	<path
   class="st0"
   d="m 202.064,422.55 c 11.157,6.082 20.194,1.967 20.194,-9.191 0,-11.151 -9.037,-25.128 -20.194,-31.211 -11.158,-6.076 -20.194,-1.96 -20.194,9.191 0,11.158 9.036,25.129 20.194,31.211 z"
   id="path14"
   style="fill:#3fb950;fill-opacity:1;stroke-width:4904.19;stroke-dasharray:none" />
	<path
   class="st0"
   d="m 145.672,335.423 c 11.157,6.083 20.2,1.968 20.2,-9.19 0,-11.151 -9.043,-25.128 -20.2,-31.204 -11.158,-6.082 -20.194,-1.967 -20.194,9.184 0,11.157 9.036,25.128 20.194,31.21 z"
   id="path15"
   style="fill:#3fb950;fill-opacity:1;stroke-width:4904.19;stroke-dasharray:none" />
</g></g><style
     type="text/css"
     id="style1">
	.st0{fill:#000000;}
</style><style
     type="text/css"
     id="style1-5">
	.st0{fill:#000000;}
</style></svg>
